<?xml version="1.0" encoding="UTF-8" standalone="no"?>
<!DOCTYPE svg PUBLIC "-//W3C//DTD SVG 1.1//EN" "http://www.w3.org/Graphics/SVG/1.1/DTD/svg11.dtd">
<svg width="100%" height="100%" viewBox="0 0 1024 1024" version="1.1" xmlns="http://www.w3.org/2000/svg" xmlns:xlink="http://www.w3.org/1999/xlink" xml:space="preserve" xmlns:serif="http://www.serif.com/" style="fill-rule:evenodd;clip-rule:evenodd;stroke-linejoin:round;stroke-miterlimit:2;">
    <g transform="matrix(1.47596,0,0,1.66065,-489.388,-166.622)">
        <g transform="matrix(466.51,0,0,414.626,294.671,512)">
            <path d="M0.438,0.2L0.402,0.2C0.339,0.2 0.292,0.185 0.262,0.156C0.231,0.127 0.216,0.082 0.216,0.022L0.216,-0.146C0.216,-0.162 0.214,-0.176 0.21,-0.189C0.207,-0.201 0.201,-0.212 0.192,-0.22C0.183,-0.229 0.171,-0.236 0.156,-0.24C0.141,-0.245 0.123,-0.247 0.1,-0.247L0.079,-0.247L0.079,-0.315L0.1,-0.315C0.124,-0.315 0.143,-0.317 0.158,-0.321C0.173,-0.325 0.185,-0.331 0.193,-0.339C0.202,-0.347 0.208,-0.357 0.211,-0.369C0.214,-0.382 0.216,-0.396 0.216,-0.413L0.216,-0.529C0.216,-0.556 0.219,-0.581 0.226,-0.603C0.232,-0.625 0.243,-0.643 0.258,-0.659C0.272,-0.674 0.292,-0.686 0.315,-0.695C0.339,-0.703 0.368,-0.707 0.402,-0.707L0.438,-0.707L0.438,-0.639L0.409,-0.639C0.334,-0.639 0.296,-0.602 0.296,-0.529L0.296,-0.415C0.296,-0.336 0.262,-0.291 0.193,-0.281C0.262,-0.274 0.297,-0.229 0.297,-0.147L0.297,0.02C0.297,0.095 0.334,0.132 0.409,0.132L0.438,0.132L0.438,0.2Z" style="fill-rule:nonzero;"/>
        </g>
        <g transform="matrix(358.359,0,0,318.504,482.899,512)">
            <path d="M0.486,-0.024C0.435,-0.003 0.381,0.008 0.325,0.008C0.235,0.008 0.166,-0.019 0.117,-0.073C0.069,-0.127 0.045,-0.207 0.045,-0.312C0.045,-0.363 0.052,-0.409 0.065,-0.451C0.078,-0.492 0.097,-0.527 0.122,-0.556C0.147,-0.585 0.177,-0.607 0.212,-0.623C0.247,-0.638 0.286,-0.646 0.33,-0.646C0.36,-0.646 0.387,-0.643 0.413,-0.638C0.438,-0.633 0.462,-0.626 0.486,-0.615L0.486,-0.53C0.463,-0.542 0.439,-0.552 0.414,-0.559C0.389,-0.566 0.362,-0.569 0.333,-0.569C0.303,-0.569 0.276,-0.563 0.252,-0.552C0.227,-0.541 0.207,-0.524 0.19,-0.503C0.173,-0.482 0.16,-0.456 0.151,-0.425C0.142,-0.394 0.137,-0.359 0.137,-0.32C0.137,-0.237 0.154,-0.175 0.188,-0.133C0.221,-0.091 0.27,-0.07 0.335,-0.07C0.362,-0.07 0.389,-0.073 0.414,-0.079C0.439,-0.086 0.463,-0.095 0.486,-0.106L0.486,-0.024Z" style="fill:rgb(195,44,0);fill-rule:nonzero;"/>
        </g>
        <g transform="matrix(358.359,0,0,318.504,679.926,512)">
            <path d="M0.496,-0.191C0.496,-0.16 0.49,-0.133 0.478,-0.11C0.466,-0.086 0.449,-0.066 0.427,-0.05C0.406,-0.034 0.379,-0.021 0.348,-0.013C0.317,-0.004 0.282,-0 0.244,-0L0.077,-0L0.077,-0.638L0.26,-0.638C0.402,-0.638 0.473,-0.586 0.473,-0.483C0.473,-0.448 0.465,-0.419 0.448,-0.394C0.432,-0.369 0.405,-0.351 0.368,-0.339C0.385,-0.336 0.402,-0.33 0.417,-0.322C0.433,-0.314 0.446,-0.304 0.458,-0.292C0.47,-0.28 0.479,-0.265 0.486,-0.248C0.493,-0.231 0.496,-0.212 0.496,-0.191ZM0.383,-0.471C0.383,-0.484 0.381,-0.497 0.377,-0.508C0.373,-0.52 0.366,-0.53 0.356,-0.538C0.347,-0.546 0.333,-0.553 0.317,-0.558C0.3,-0.563 0.279,-0.565 0.254,-0.565L0.164,-0.565L0.164,-0.365L0.251,-0.365C0.271,-0.365 0.289,-0.367 0.305,-0.372C0.321,-0.376 0.335,-0.382 0.346,-0.391C0.358,-0.4 0.367,-0.411 0.373,-0.424C0.38,-0.437 0.383,-0.453 0.383,-0.471ZM0.404,-0.188C0.404,-0.204 0.4,-0.219 0.394,-0.232C0.387,-0.245 0.377,-0.256 0.364,-0.265C0.351,-0.274 0.335,-0.281 0.316,-0.286C0.297,-0.291 0.276,-0.293 0.253,-0.293L0.164,-0.293L0.164,-0.073L0.256,-0.073C0.306,-0.073 0.343,-0.083 0.367,-0.101C0.392,-0.12 0.404,-0.149 0.404,-0.188Z" style="fill:rgb(255,166,0);fill-rule:nonzero;"/>
        </g>
        <g transform="matrix(466.51,0,0,414.626,805.543,515.442)">
            <path d="M0.112,-0.707L0.148,-0.707C0.211,-0.707 0.257,-0.692 0.288,-0.663C0.319,-0.633 0.334,-0.589 0.334,-0.529L0.334,-0.416C0.334,-0.4 0.336,-0.386 0.339,-0.373C0.343,-0.361 0.349,-0.35 0.358,-0.342C0.367,-0.333 0.379,-0.326 0.394,-0.322C0.409,-0.317 0.428,-0.315 0.45,-0.315L0.471,-0.315L0.471,-0.247L0.45,-0.247C0.426,-0.247 0.407,-0.245 0.392,-0.241C0.377,-0.237 0.365,-0.231 0.356,-0.223C0.348,-0.215 0.342,-0.205 0.339,-0.193C0.336,-0.181 0.334,-0.166 0.334,-0.149L0.334,0.022C0.334,0.049 0.331,0.074 0.324,0.096C0.318,0.118 0.307,0.137 0.292,0.152C0.278,0.168 0.259,0.179 0.235,0.188C0.211,0.196 0.182,0.2 0.148,0.2L0.112,0.2L0.112,0.132L0.141,0.132C0.216,0.132 0.254,0.095 0.254,0.022L0.254,-0.147C0.254,-0.226 0.288,-0.271 0.357,-0.281C0.288,-0.288 0.253,-0.333 0.253,-0.415L0.253,-0.527C0.253,-0.601 0.216,-0.639 0.141,-0.639L0.112,-0.639L0.112,-0.707Z" style="fill-rule:nonzero;"/>
        </g>
    </g>
</svg>
